PathFileType	4	(X/Y/Z)	D:\MotionData\Pi-Spi Study\20230118_AMCsubject1\Trimmed_left_abd_001_rotated.trc
DataRate	CameraRate	NumFrames	NumMarkers	Units	OrigDataRate	OrigDataStartFrame	OrigNumFrames
200.00	200.00	       9	35	mm	200.00	1	       200
Frame#	Time	C7			Sternum			r_AMC1			r_AMC2			r_AMC3			l_AMC1			l_AMC2			l_AMC3			PX			T8			r_humerous			r_elbow_medial			r_elbow_lateral			r_forearm			r_wrist_radius			r_wrist_ulna			r_MCP_1			r_MCP_3			l_humerous			l_elbow_medial			l_elbow_lateral			l_forearm			l_wrist_radius			l_wrist_ulna			l_MCP_1			l_MCP_3			r_ASIS			r_PSIS			l_ASIS			l_PSIS			r_IC			l_IC			TS			AI			AA			
		X1	Y1	Z1	X2	Y2	Z2	X3	Y3	Z3	X4	Y4	Z4	X5	Y5	Z5	X6	Y6	Z6	X7	Y7	Z7	X8	Y8	Z8	X9	Y9	Z9	X10	Y10	Z10	X11	Y11	Z11	X12	Y12	Z12	X13	Y13	Z13	X14	Y14	Z14	X15	Y15	Z15	X16	Y16	Z16	X17	Y17	Z17	X18	Y18	Z18	X19	Y19	Z19	X20	Y20	Z20	X21	Y21	Z21	X22	Y22	Z22	X23	Y23	Z23	X24	Y24	Z24	X25	Y25	Z25	X26	Y26	Z26	X27	Y27	Z27	X28	Y28	Z28	X29	Y29	Z29	X30	Y30	Z30	X31	Y31	Z31	X32	Y32	Z32	X33	Y33	Z33	X34	Y34	Z34	X35	Y35	Z35	

1	0	208.2064	1374.532	-207.8849	336.286	1302.3136	-200.7284	208.8753	1315.2573	-42.8863	246.7924	1311.6526	-10.5812	267.7468	1346.304	-30.7599	229.3284	1324.4478	-373.6359	268.2359	1316.2357	-405.4621	292.2653	1351.6119	-375.5281	391.0012	1112.5868	-196.7626	158.055	1191.4047	-218.5533	314.14	1125.0459	-2.8913	250.1044	986.275	-34.0781	256.3975	995.2929	34.2493	311.8772	841.3155	60.2358	364.1418	779.6605	44.8387	315.1103	771.9542	59.8955	387.2015	697.508	59.1198	337.8687	692.9529	70.2852	351.9405	1123.1465	-397.058	290.7252	993.7252	-369.4419	295.238	989.5143	-421.7369	330.4512	840.115	-454.0079	371.6552	766.9085	-448.8881	326.639	763.2781	-448.4513	379.8054	687.4616	-459.2583	331.0308	684.2433	-453.64	376.0144	906.787	-67.6185	186.6586	924.1896	-153.9409	380.4687	893.2897	-329.6848	189.2691	918.6602	-257.3207	285.9119	966.2382	-42.4839	289.1743	938.7329	-368.3854	134.1267	1309.1508	-324.6767	120.0221	1209.2719	-316.4692	211.2316	1293.795	-438.4936
2	0.005	208.2577	1374.5883	-207.8607	336.6455	1302.6265	-200.558	208.8897	1315.2573	-42.8695	246.7758	1311.6443	-10.5524	267.7771	1346.2866	-30.7459	229.2061	1324.5182	-373.8544	268.2278	1316.2264	-405.4648	292.2679	1351.7183	-375.9411	391.0938	1112.5913	-196.7189	158.0414	1191.4133	-218.5305	314.4806	1125.1882	-2.5322	250.0851	986.2785	-34.0761	256.3639	995.2989	34.3085	311.8943	841.307	60.2207	364.1048	779.6894	44.8523	315.1465	771.9554	59.8795	387.3377	697.7221	59.2678	337.9893	692.8186	70.2368	351.9521	1123.1293	-397.0306	290.7308	993.7103	-369.3961	295.2427	989.4846	-421.7235	330.4598	840.1428	-454.0167	371.6377	766.8529	-448.8307	326.627	763.2748	-448.4421	379.7252	687.5922	-459.3306	331.048	684.231	-453.6392	375.9438	906.8602	-67.5774	186.654	924.2062	-153.9229	380.4576	893.2543	-329.6987	189.3051	918.6012	-257.3726	285.954	966.1998	-42.4353	289.195	938.764	-368.3806	134.1281	1309.1529	-324.6175	120.0473	1209.2473	-316.5004	211.1805	1293.7921	-438.4913
3	0.01	208.2404	1374.6014	-207.8339	336.6805	1302.6353	-200.5694	208.7726	1315.1932	-42.7253	246.7998	1311.6345	-10.5499	267.7659	1346.2163	-30.6785	229.18	1324.5613	-373.7997	268.2327	1316.2456	-405.4361	292.2918	1351.5762	-375.561	391.0826	1112.5874	-196.7192	158.0458	1191.4004	-218.5174	314.1628	1124.9447	-2.8764	250.0544	986.2602	-34.0622	256.3816	995.309	34.2587	311.8876	841.2931	60.2028	364.1493	779.6098	44.7989	315.1675	771.8627	59.8045	387.1068	697.5718	59.1678	337.9027	692.8991	70.2265	351.9703	1123.0928	-397.0379	290.7549	993.7424	-369.4192	295.2504	989.4955	-421.6949	330.4481	840.1382	-454.0042	371.6507	766.8873	-448.8934	326.6074	763.2809	-448.4497	379.8132	687.4294	-459.2476	331.0224	684.2792	-453.6717	375.9399	906.8612	-67.5383	186.6649	924.1717	-153.8948	380.4537	893.2721	-329.6758	189.2408	918.643	-257.2976	285.8841	966.2262	-42.4785	289.1816	938.7368	-368.3449	134.1372	1309.1465	-324.6094	120.0281	1209.2618	-316.4119	211.191	1293.7628	-438.4568
4	0.015	208.2454	1374.5878	-207.8231	336.6555	1302.6461	-200.5412	208.7984	1315.1727	-42.7029	246.7962	1311.6188	-10.5181	267.7499	1346.2037	-30.6503	229.1816	1324.5409	-373.7906	268.2108	1316.2352	-405.4007	292.2963	1351.6749	-375.8813	391.0233	1112.5902	-196.7115	158.0487	1191.4073	-218.5041	314.1512	1124.9641	-2.839	250.0505	986.2624	-34.0446	256.3337	995.2718	34.314	311.8951	841.2693	60.2025	364.1583	779.6034	44.7914	315.1889	771.8534	59.8581	387.3232	697.6664	59.2561	337.8632	692.9156	70.2356	351.9654	1123.0936	-396.9846	290.737	993.7361	-369.3716	295.23	989.5008	-421.6967	330.4506	840.1717	-453.9916	371.6458	766.9004	-448.9038	326.6003	763.2791	-448.449	379.7498	687.4451	-459.2219	330.9991	684.2381	-453.6253	375.971	906.8363	-67.5186	186.651	924.1896	-153.8733	380.3869	893.2262	-329.6608	189.2304	918.6511	-257.2549	285.9873	966.1097	-42.4164	289.166	938.7739	-368.3546	134.131	1309.1379	-324.5738	120.0514	1209.2164	-316.3959	211.1608	1293.7552	-438.4134
5	0.02	208.2001	1374.524	-207.7982	336.2881	1302.2694	-200.6546	208.792	1315.1868	-42.7011	246.7744	1311.6298	-10.4873	267.7588	1346.1711	-30.6279	229.1916	1324.5411	-373.7519	268.2278	1316.2378	-405.3858	292.2808	1351.7373	-375.7937	391.029	1112.589	-196.7008	158.0599	1191.3818	-218.4832	314.1531	1124.9205	-2.8493	250.0405	986.2736	-34.0384	256.389	995.2606	34.2637	311.8743	841.2728	60.1972	364.1614	779.5829	44.7862	315.161	771.8646	59.8445	387.3486	697.6371	59.2374	337.9333	692.8812	70.2108	351.9592	1123.1306	-396.9646	290.7601	993.7205	-369.3466	295.2432	989.4907	-421.6909	330.4162	840.1539	-453.9917	371.6104	766.9038	-448.8907	326.6029	763.2674	-448.4386	379.7882	687.3254	-459.1851	330.988	684.2703	-453.6569	375.9447	906.8353	-67.5012	186.6335	924.1643	-153.8544	380.3728	893.2129	-329.6361	189.2436	918.6462	-257.2563	285.7957	966.1757	-42.4411	289.1626	938.7307	-368.3306	134.1242	1309.135	-324.5564	120.0222	1209.2263	-316.3334	211.1258	1293.7376	-438.3719
6	0.025	208.1968	1374.5209	-207.7759	336.2629	1302.2753	-200.6227	208.8134	1315.1779	-42.673	246.8199	1311.6119	-10.4946	267.78	1346.1504	-30.6146	229.3835	1324.3407	-373.5335	268.2388	1316.2513	-405.3835	292.254	1351.7053	-375.7332	391.0255	1112.5708	-196.6733	158.0609	1191.3905	-218.4811	314.1718	1124.9092	-2.8447	250.0392	986.2618	-34.0467	256.379	995.2685	34.302	311.8828	841.2596	60.2008	364.0955	779.631	44.7873	315.2324	771.7641	59.8003	387.3122	697.64	59.2457	337.9562	692.8079	70.1694	351.9475	1123.1028	-397.0129	290.7502	993.7011	-369.3641	295.2325	989.4864	-421.6698	330.4271	840.1569	-453.9983	371.6545	766.8628	-448.8985	326.5947	763.2739	-448.4529	379.7125	687.4533	-459.1861	330.9945	684.2278	-453.641	375.8989	906.846	-67.4994	186.6288	924.1583	-153.85	380.4253	893.2449	-329.6429	189.2799	918.6017	-257.2946	285.9066	966.1071	-42.4121	289.1526	938.7165	-368.3145	134.1302	1309.1252	-324.5312	120.0226	1209.2186	-316.2672	211.1437	1293.7073	-438.3812
7	0.03	208.2703	1374.5879	-207.7561	336.6486	1302.6161	-200.4951	208.7838	1315.1704	-42.6432	246.7989	1311.6151	-10.461	267.8017	1346.168	-30.5932	229.2213	1324.4457	-373.7067	268.215	1316.2124	-405.3537	292.2463	1351.6862	-375.8841	391.0369	1112.582	-196.698	158.0704	1191.3854	-218.4237	314.1637	1124.8867	-2.8285	250.0525	986.2524	-34.0314	256.3472	995.2484	34.3058	311.8924	841.2449	60.1793	364.1379	779.5479	44.7498	315.1614	771.8145	59.8257	387.3348	697.615	59.2164	337.9236	692.8069	70.2019	351.964	1123.0756	-396.9597	290.7191	993.708	-369.3693	295.2193	989.4672	-421.6611	330.4222	840.1727	-453.9984	371.6217	766.8591	-448.9201	326.5818	763.2657	-448.4438	379.7545	687.3185	-459.1803	330.9622	684.2471	-453.625	375.9745	906.8079	-67.5256	186.6338	924.1815	-153.8277	380.4181	893.2611	-329.6443	189.2673	918.5768	-257.2886	285.8202	966.1567	-42.438	289.1567	938.699	-368.3261	134.1155	1309.0941	-324.496	120.0094	1209.2188	-316.2484	210.8857	1293.4888	-438.7112
8	0.035	208.2533	1374.5763	-207.7161	336.6557	1302.6077	-200.4766	208.8941	1315.2231	-42.7514	246.8242	1311.5625	-10.4569	267.765	1346.2328	-30.5767	229.2109	1324.4576	-373.7133	268.2169	1316.2134	-405.3395	292.2559	1351.5645	-375.4641	391.0504	1112.5684	-196.681	158.0543	1191.3755	-218.3997	314.2339	1124.8594	-2.867	250.0423	986.2622	-34.0111	256.4161	995.2666	34.288	311.9089	841.2197	60.1743	364.1139	779.5499	44.7489	315.1032	771.7678	59.7801	387.3704	697.5336	59.1898	337.9478	692.7961	70.1645	351.9421	1123.0756	-396.9807	290.7477	993.7057	-369.3644	295.215	989.4877	-421.6526	330.3703	840.1317	-453.9967	371.614	766.8549	-448.8798	326.5792	763.2564	-448.426	379.7598	687.3043	-459.1635	330.9652	684.2187	-453.625	375.9444	906.828	-67.4694	186.6133	924.1301	-153.8309	380.4214	893.23	-329.637	189.2533	918.5692	-257.2435	285.9291	966.0442	-42.3687	289.1549	938.7053	-368.3001	134.1097	1309.0763	-324.4619	119.9917	1209.1968	-316.1841	210.8538	1293.4298	-438.7059
9	0.04	208.2445	1374.5715	-207.7019	336.6812	1302.6305	-200.4581	208.7988	1315.1492	-42.6205	246.8215	1311.5626	-10.4366	267.8046	1346.1329	-30.5556	229.2263	1324.4316	-373.7057	268.2113	1316.2296	-405.3284	292.2502	1351.5425	-375.4531	391.024	1112.5555	-196.6445	158.0618	1191.3647	-218.379	314.2228	1124.8481	-2.8405	250.051	986.2555	-34.0264	256.3901	995.2437	34.2943	311.9091	841.1948	60.1844	364.1148	779.5734	44.7402	315.1232	771.7728	59.786	387.3672	697.5631	59.1498	337.885	692.7927	70.1754	351.9601	1123.0789	-396.9623	290.6827	993.7203	-369.3544	295.2009	989.4725	-421.6418	330.3951	840.1197	-453.9717	371.5963	766.813	-448.7918	326.5594	763.2523	-448.4515	379.7315	687.3859	-459.2256	330.9392	684.2441	-453.6318	376.0011	906.8002	-67.5018	186.6144	924.1475	-153.7974	380.4237	893.2159	-329.6129	189.1965	918.603	-257.168	285.8668	966.0715	-42.3998	289.1019	938.6647	-368.3063	134.0928	1309.0878	-324.3752	119.9521	1209.1895	-316.1508	210.8443	1293.4094	-438.6362
